<svg width="219" height="217" viewBox="0 0 219 217" fill="none" xmlns="http://www.w3.org/2000/svg">
<path d="M219.196 214.205C199.496 212.795 156.826 203.523 143.746 177.719C127.395 145.464 148.247 119.29 117.659 90.4796C87.0714 61.6694 72.2658 75.2213 37.2876 52.0879C9.30504 33.5811 3.08258 8.31809 3.46918 -2.00008" stroke="#04585E" stroke-opacity="0.3" stroke-width="5"/>
<path d="M219.27 178.901C202.283 177.72 165.49 169.964 154.209 148.381C140.108 121.404 158.088 99.5132 131.711 75.4157C105.334 51.3183 92.5683 62.6518 62.4061 43.3019C38.2765 27.822 32.9096 6.6926 33.2424 -1.93713" stroke="#04585E" stroke-opacity="0.3" stroke-width="5"/>
<path d="M219.33 150.135C206.827 149.146 179.744 142.634 171.445 124.495C161.071 101.821 174.311 83.4162 154.9 63.1661C135.489 42.9161 126.089 52.4457 103.891 36.1872C86.1323 23.1804 82.1863 5.42064 82.4332 -1.8334" stroke="#04585E" stroke-opacity="0.3" stroke-width="5"/>
</svg>
