<?xml version="1.0" encoding="utf-8"?>
<!-- Generator: Adobe Illustrator 26.4.1, SVG Export Plug-In . SVG Version: 6.00 Build 0)  -->
<svg version="1.1" id="Layer_1" xmlns="http://www.w3.org/2000/svg" xmlns:xlink="http://www.w3.org/1999/xlink" x="0px" y="0px"
	 viewBox="0 0 531 516.9" style="enable-background:new 0 0 531 516.9;" xml:space="preserve">
<style type="text/css">
	.st0{fill-rule:evenodd;clip-rule:evenodd;fill:#04585E;}
</style>
<path class="st0" d="M265.4,0C119.1,0,0.4,118.6,0.4,265c0,117.1,75.9,216.4,181.2,251.4c13.3,2.4,18.1-5.8,18.1-12.8
	c0-6.3-0.2-23-0.4-45.1c-73.7,16-89.3-35.5-89.3-35.5c-12-30.6-29.4-38.8-29.4-38.8c-24.1-16.4,1.8-16.1,1.8-16.1
	c26.6,1.9,40.6,27.3,40.6,27.3c23.6,40.5,62,28.8,77.1,22c2.4-17.1,9.3-28.8,16.8-35.4c-58.8-6.7-120.7-29.4-120.7-131
	c0-28.9,10.3-52.6,27.3-71.1c-2.7-6.7-11.8-33.6,2.6-70.1c0,0,22.2-7.1,72.9,27.2c21.1-5.9,43.8-8.8,66.3-8.9
	c22.5,0.1,45.2,3,66.3,8.9c50.6-34.3,72.8-27.2,72.8-27.2c14.5,36.5,5.4,63.4,2.6,70.1c17,18.5,27.2,42.2,27.2,71.1
	c0,101.8-62,124.2-121,130.8c9.5,8.2,18,24.4,18,49.1c0,35.4-0.3,64-0.3,72.7c0,7.1,4.8,15.3,18.2,12.7
	C454.6,481.3,530.4,382,530.4,265C530.4,118.6,411.8,0,265.4,0z"/>
</svg>
