<svg width="1002" height="199" viewBox="0 0 1002 199" fill="none" xmlns="http://www.w3.org/2000/svg">
<path d="M1.00101 0H1001V180C1001 189.941 992.941 198 983 198H19.001C9.05987 198 1.00101 189.941 1.00101 180V0Z" fill="#04585E"/>
<path d="M846 198C846.983 183.783 853.58 152.98 872.098 143.502C895.246 131.655 914.082 146.662 934.734 124.547C955.385 102.432 945.627 91.7693 962.193 66.495C975.447 46.2757 993.587 41.7474 1001 42.0106" stroke="white" stroke-opacity="0.1" stroke-width="5"/>
<path d="M871 198C871.825 185.697 877.357 159.041 892.889 150.839C912.303 140.586 928.101 153.573 945.422 134.435C962.742 115.297 954.558 106.07 968.452 84.1976C979.568 66.7001 994.782 62.7814 1001 63.0092" stroke="white" stroke-opacity="0.1" stroke-width="5"/>
<path d="M891 198C891.698 189.069 896.379 169.718 909.521 163.764C925.949 156.322 939.316 165.749 953.972 151.856C968.628 137.964 961.703 131.265 973.46 115.388C982.865 102.686 995.739 99.8413 1001 100.007" stroke="white" stroke-opacity="0.1" stroke-width="5"/>
<path d="M165.165 7.62939e-06C164.123 15.2192 157.137 48.1942 137.524 58.3403C113.007 71.023 93.0574 54.9583 71.1847 78.6326C49.3121 102.307 59.6475 113.721 42.1013 140.778C28.0644 162.423 8.85171 167.27 0.999989 166.989" stroke="white" stroke-opacity="0.1" stroke-width="5"/>
<path d="M138.302 3.40523e-06C137.431 13.1232 131.587 41.5567 115.183 50.3054C94.6787 61.2414 77.9934 47.3892 59.7 67.803C41.4065 88.2168 50.0507 98.0591 35.3757 121.389C23.6357 140.053 7.56689 144.233 0.999997 143.99" stroke="white" stroke-opacity="0.1" stroke-width="5"/>
<path d="M116.413 -7.63574e-07C115.681 9.6601 110.769 30.5903 96.9803 37.0304C79.7444 45.0805 65.7191 34.8837 50.342 49.9105C34.9649 64.9373 42.231 72.1824 29.8955 89.3559C20.0271 103.095 6.51999 106.172 0.999999 105.993" stroke="white" stroke-opacity="0.1" stroke-width="5"/>
</svg>
