<svg width="377" height="200" viewBox="0 0 377 199" fill="none" xmlns="http://www.w3.org/2000/svg">
<path d="M251 198C251.793 186.426 257.113 161.349 272.047 153.633C290.714 143.988 305.905 156.205 322.559 138.202C339.214 120.198 331.344 111.517 344.704 90.9415C355.392 74.4808 370.021 70.7943 376 71.0087" stroke="white" stroke-opacity="0.1" stroke-width="5"/>
<path d="M271 198C271.666 187.975 276.135 166.255 288.679 159.572C304.36 151.218 317.12 161.8 331.11 146.206C345.1 130.612 338.489 123.094 349.712 105.272C358.69 91.0149 370.978 87.8219 376 88.0075" stroke="white" stroke-opacity="0.1" stroke-width="5"/>
<path d="M287 198C287.565 190.709 291.352 174.913 301.985 170.053C315.277 163.977 326.092 171.673 337.95 160.332C349.808 148.991 344.205 143.523 353.717 130.562C361.327 120.193 371.743 117.87 376 118.005" stroke="white" stroke-opacity="0.1" stroke-width="5"/>
<path d="M120 -9.53674e-07C119.245 10.8448 114.181 34.342 99.9634 41.5718C82.1918 50.6092 67.7306 39.1619 51.8755 56.0316C36.0205 72.9014 43.5125 81.035 30.7936 100.315C20.6185 115.738 6.69156 119.193 1 118.992" stroke="white" stroke-opacity="0.1" stroke-width="5"/>
<path d="M100 -3.10071e-05C99.3719 9.39882 95.1587 29.763 83.3309 36.0289C68.5461 43.8613 56.5154 33.9403 43.325 48.5607C30.1347 63.1811 36.3675 70.2303 25.7862 86.9394C17.3212 100.307 5.735 103.3 1 103.126" stroke="white" stroke-opacity="0.1" stroke-width="5"/>
<path d="M85 3.27755e-05C84.4671 6.86843 80.8922 21.7499 70.8565 26.3289C58.3119 32.0525 48.104 24.8026 36.9122 35.4867C25.7204 46.1709 31.0088 51.3222 22.0307 63.5327C14.8483 73.301 5.01757 75.4888 1 75.3616" stroke="white" stroke-opacity="0.1" stroke-width="5"/>
</svg>
